<svg xmlns="http://www.w3.org/2000/svg" width="390" height="844" viewBox="0 0 390 844">
  <defs>
    <linearGradient id="bg" x1="0" y1="0" x2="1" y2="1"><stop offset="0" stop-color="#14110b"/><stop offset="0.55" stop-color="#20170b"/><stop offset="1" stop-color="#08090b"/></linearGradient>
    <linearGradient id="fry" x1="0" y1="0" x2="1" y2="1"><stop offset="0" stop-color="#ffd36a"/><stop offset="0.5" stop-color="#f6a400"/><stop offset="1" stop-color="#c86b00"/></linearGradient>
    <linearGradient id="card" x1="0" y1="0" x2="1" y2="1"><stop offset="0" stop-color="#2b2418"/><stop offset="1" stop-color="#17181b"/></linearGradient>
    <filter id="shadow" x="-20%" y="-20%" width="140%" height="140%"><feDropShadow dx="0" dy="14" stdDeviation="14" flood-color="#000" flood-opacity="0.42"/></filter>
    <style>
      .title{font:800 28px 'DejaVu Sans', Arial, sans-serif;fill:#fff8e7;letter-spacing:-0.7px}
      .sub{font:500 12px 'DejaVu Sans', Arial, sans-serif;fill:#b7aa94}
      .label{font:700 11px 'DejaVu Sans', Arial, sans-serif;fill:#f5c662;letter-spacing:1.2px}
      .body{font:600 14px 'DejaVu Sans', Arial, sans-serif;fill:#fff3d0}
      .muted{font:500 11px 'DejaVu Sans', Arial, sans-serif;fill:#9f9483}
      .num{font:900 40px 'DejaVu Sans', Arial, sans-serif;fill:#ffd36a}
      .tiny{font:700 9px 'DejaVu Sans', Arial, sans-serif;fill:#20140a}
      .chiptext{font:800 11px 'DejaVu Sans', Arial, sans-serif;fill:#281706}
    </style>
  </defs>
  <rect width="390" height="844" rx="34" fill="#050505"/>
  <rect x="10" y="10" width="370" height="824" rx="28" fill="url(#bg)"/>
  <rect x="145" y="22" width="100" height="22" rx="11" fill="#050505" opacity=".8"/>
<text x="28" y="82" class="label">CONCEPT 1</text><text x="28" y="116" class="title">Fry Lab HQ</text><text x="28" y="138" class="sub">A command-center home + log list with live score telemetry.</text><rect x="24" y="158" width="342" height="178" rx="24" fill="url(#card)" stroke="#3a2a15" stroke-width="1" filter="url(#shadow)"/>
<text x="42" y="190" class="label">TODAY'S READINESS</text><text x="42" y="230" class="num">8.4</text><text x="117" y="226" class="body">/ 10</text><text x="42" y="256" class="sub">2 elite tastings logged this week</text><circle cx="292" cy="244" r="54" fill="none" stroke="#3a3022" stroke-width="14"/><circle cx="292" cy="244" r="54" fill="none" stroke="#f6a400" stroke-width="14" stroke-dasharray="285 339" stroke-linecap="round" transform="rotate(-90 292 244)"/><text x="292" y="238" text-anchor="middle" class="body">STREAK</text><text x="292" y="262" text-anchor="middle" class="title" style="font-size:24px">5</text><rect x="24" y="358" width="342" height="142" rx="24" fill="url(#card)" stroke="#3a2a15" stroke-width="1" filter="url(#shadow)"/>
<text x="42" y="390" class="label">QUICK LOG PRESETS</text><rect x="42" y="410" width="84" height="26" rx="13" fill="#f2a20b"/><text x="84.0" y="427" text-anchor="middle" class="chiptext">HOT</text>
<rect x="138" y="410" width="92" height="26" rx="13" fill="#f2a20b"/><text x="184.0" y="427" text-anchor="middle" class="chiptext">CRISPY</text>
<rect x="238" y="410" width="76" height="26" rx="13" fill="#f2a20b"/><text x="276.0" y="427" text-anchor="middle" class="chiptext">SAUCY</text>
<rect x="42" y="446" width="104" height="26" rx="13" fill="#ffd36a"/><text x="94.0" y="463" text-anchor="middle" class="chiptext">SHOESTRING</text>
<rect x="158" y="446" width="92" height="26" rx="13" fill="#ffd36a"/><text x="204.0" y="463" text-anchor="middle" class="chiptext">WAFFLE</text>
<rect x="262" y="446" width="58" height="26" rx="13" fill="#7b8794"/><text x="291.0" y="463" text-anchor="middle" class="chiptext">COLD</text>
<rect x="24" y="522" width="342" height="258" rx="24" fill="url(#card)" stroke="#3a2a15" stroke-width="1" filter="url(#shadow)"/>
<text x="42" y="554" class="label">RECENT SIGNALS</text><rect x="42" y="566" width="306" height="46" rx="16" fill="#211a12"/><text x="58" y="586" class="body">Burger Barn</text><text x="58" y="603" class="muted">Shoestring • texture stable</text><text x="320" y="595" text-anchor="end" class="body" style="fill:#ffd36a">9.1</text><rect x="42" y="626" width="306" height="46" rx="16" fill="#211a12"/><text x="58" y="646" class="body">Boardwalk Stand</text><text x="58" y="663" class="muted">Crinkle • texture stable</text><text x="320" y="655" text-anchor="end" class="body" style="fill:#ffd36a">7.8</text><rect x="42" y="686" width="306" height="46" rx="16" fill="#211a12"/><text x="58" y="706" class="body">Late Night Diner</text><text x="58" y="723" class="muted">Wedge • texture stable</text><text x="320" y="715" text-anchor="end" class="body" style="fill:#ffd36a">5.9</text></svg>
